<svg width="16" height="16" viewBox="0 0 16 16" fill="none" xmlns="http://www.w3.org/2000/svg">
<path fill-rule="evenodd" clip-rule="evenodd" d="M13.499 10.04C13.991 9.788 14 9.594 14 9.5V5.462C13.204 5.821 12.152 6 11 6C10.462 6.00222 9.92469 5.95873 9.394 5.87C9.46467 6.06533 9.5 6.27533 9.5 6.5V10.364C9.928 10.45 10.432 10.5 11 10.5C12.107 10.5 12.971 10.31 13.499 10.04ZM8 8.462V12.5C8 12.594 7.991 12.788 7.499 13.04C6.971 13.31 6.107 13.5 5 13.5C3.893 13.5 3.029 13.31 2.501 13.04C2.01 12.788 2 12.594 2 12.5V8.462C2.796 8.821 3.847 9 5 9C6.153 9 7.204 8.82 8 8.462ZM8 6.5C8 6.407 7.991 6.212 7.499 5.96C6.97 5.69 6.107 5.5 5 5.5C3.893 5.5 3.029 5.69 2.501 5.96C2.01 6.212 2 6.407 2 6.5C2 6.593 2.009 6.788 2.501 7.04C3.029 7.31 3.893 7.5 5 7.5C6.107 7.5 6.971 7.31 7.499 7.04C7.99 6.788 8 6.593 8 6.5ZM0.5 6.5C0.5 4.833 2.515 4 5 4C5.526 4 6.03 4.037 6.5 4.112V3.5C6.5 1.833 8.515 1 11 1C13.485 1 15.5 1.833 15.5 3.5V9.5C15.5 11.167 13.485 12 11 12C10.4978 12.002 9.9963 11.9645 9.5 11.888V12.5C9.5 14.167 7.485 15 5 15C2.515 15 0.5 14.167 0.5 12.5V6.5ZM8 3.5C8 3.594 8.009 3.788 8.501 4.04C9.029 4.31 9.893 4.5 11 4.5C12.107 4.5 12.971 4.31 13.499 4.04C13.991 3.788 14 3.594 14 3.5C14 3.406 13.991 3.212 13.499 2.96C12.97 2.69 12.107 2.5 11 2.5C9.893 2.5 9.029 2.69 8.501 2.96C8.01 3.212 8 3.406 8 3.5Z" fill="white"/>
</svg>
